Coordinates
version=1
nRows=14
nColumns=24
inDegrees=yes

Units are S.I. units (second, meters, Newtons, ...)
Angles are in degrees.

endheader
time	pelvis_tilt	pelvis_list	pelvis_rotation	pelvis_tx	pelvis_ty	pelvis_tz	hip_flexion_r	hip_adduction_r	hip_rotation_r	knee_angle_r	ankle_angle_r	subtalar_angle_r	mtp_angle_r	hip_flexion_l	hip_adduction_l	hip_rotation_l	knee_angle_l	ankle_angle_l	subtalar_angle_l	mtp_angle_l	lumbar_extension	lumbar_bending	lumbar_rotation
      4.43000000	     -3.98672875	     -7.02551462	     -0.25004287	      0.01482418	     -0.01693075	     -0.09122205	     10.99580444	     14.89828459	     11.39581349	    -20.67366010	      1.87352615	     -4.83316292	      6.88160026	     30.72829867	     -7.90792198	     -5.14666993	    -68.30669520	     -7.60978447	     -3.55298822	      0.26158157	      5.70363324	      6.28193188	      1.33940916
      4.43500000	     -3.86710710	     -6.90095946	     -0.29927677	      0.02087691	     -0.01624165	     -0.09085442	     10.05624030	     14.77966925	     11.78933504	    -20.15386705	      2.10413781	     -4.87795483	      6.57614578	     31.30438228	     -7.71163982	     -5.23847778	    -67.35212277	     -7.31826789	     -3.38668151	      1.47683168	      5.54837645	      6.17789327	      1.58525640
      4.44000000	     -3.90645141	     -6.72207914	     -0.37526004	      0.02689920	     -0.01576342	     -0.09051128	      9.35225209	     14.58037720	     11.97652706	    -19.69639176	      2.34815809	     -4.82394260	      6.59577148	     32.03573784	     -7.45984027	     -5.35941766	    -66.37888059	     -6.80361737	     -2.96618099	      1.82552231	      5.56096716	      6.03154417	      1.90963700
      4.44500000	     -3.83681050	     -6.57675580	     -0.48590539	      0.03289434	     -0.01521994	     -0.09013406	      8.51769574	     14.42132801	     12.26170201	    -19.22872833	      2.52596876	     -4.76074600	      6.56272290	     32.58639226	     -7.27385590	     -5.49597970	    -65.29936044	     -6.21642351	     -2.45671974	      2.33621314	      5.44001883	      5.93045292	      2.28126158
      4.45000000	     -3.78965288	     -6.41654427	     -0.56626261	      0.03887666	     -0.01475778	     -0.08976269	      7.71391295	     14.24213211	     12.53874049	    -18.76305730	      2.70550339	     -4.73995138	      6.51751754	     33.13634243	     -7.05952760	     -5.60952239	    -64.13309163	     -5.68932654	     -1.96114394	      2.83182359	      5.34277152	      5.79099007	      2.59991810
      4.45500000	     -3.76215551	     -6.25428941	     -0.64121354	      0.04484760	     -0.01437696	     -0.08943989	      6.94395150	     14.05371480	     12.79498185	    -18.31140108	      2.88864279	     -4.73044101	      6.48016871	     33.67441679	     -6.84143277	     -5.72018545	    -62.88675561	     -5.18162396	     -1.44026316	      3.28537549	      5.26625162	      5.66240471	      2.89819321
      4.46000000	     -3.75233440	     -6.08870063	     -0.71191230	      0.05080589	     -0.01407172	     -0.08913034	      6.20765098	     13.85923700	     13.03216984	    -17.87844153	      3.06890667	     -4.72966990	      6.45081914	     34.19382539	     -6.61813266	     -5.81950900	    -61.55899892	     -4.67760393	     -0.89240375	      3.66505228	      5.20602124	      5.52800992	      3.17694626
      4.46500000	     -3.77024932	     -5.92320454	     -0.76707901	      0.05675081	     -0.01385802	     -0.08884320	      5.51081547	     13.66028197	     13.23807436	    -17.44971185	      3.23901123	     -4.73355281	      6.42547325	     34.71529017	     -6.39531402	     -5.91958697	    -60.16406263	     -4.19134808	     -0.33692694	      3.93986207	      5.16840430	      5.38376360	      3.41920020
      4.47000000	     -3.74913018	     -5.76546643	     -0.83368225	      0.06268843	     -0.01366264	     -0.08858504	      4.78426516	     13.47038898	     13.46725691	    -17.05176911	      3.40872326	     -4.76520122	      6.38810706	     35.13856756	     -6.17430872	     -5.98221185	    -58.67839156	     -3.69062973	      0.25649324	      4.17126660	      5.08982495	      5.26324426	      3.70750362
      4.47500000	     -3.86604560	     -5.61520239	     -0.83104012	      0.06859033	     -0.01370072	     -0.08846302	      4.23928655	     13.27785539	     13.57797473	    -16.68063331	      3.59215385	     -4.80402315	      6.37969844	     35.71528284	     -5.90598073	     -5.98230383	    -57.14514109	     -3.29814356	      0.70505717	      4.23247920	      5.16084443	      5.14839389	      3.88081558
      4.48000000	     -3.78899330	     -5.46569266	     -0.93467920	      0.07453459	     -0.01354904	     -0.08816462	      3.46280152	     13.09725998	     13.81907381	    -16.30620005	      3.73171229	     -4.81086055	      6.33978463	     35.97323025	     -5.74676271	     -6.10052168	    -55.51400469	     -2.72459170	      1.41934017	      4.26935820	      5.00747591	      5.03247561	      4.16441969
      4.48500000	     -3.79675708	     -5.31898738	     -0.97890821	      0.08046227	     -0.01356199	     -0.08799164	      2.79801105	     12.91158050	     13.98341603	    -15.94904674	      3.88075790	     -4.85527055	      6.29494954	     36.30832944	     -5.53272561	     -6.14352422	    -53.82463315	     -2.25299657	      1.98120393	      4.10974645	      4.94899790	      4.91603825	      4.36186291
      4.49000000	     -3.91053117	     -5.18746437	     -0.99377180	      0.08631977	     -0.01375552	     -0.08790377	      2.29741645	     12.74245957	     14.07010876	    -15.66252806	      4.02652704	     -4.88899385	      6.27910763	     36.73616276	     -5.29532308	     -6.10497704	    -52.06668902	     -1.88003120	      2.45586211	      3.95170588	      4.99092589	      4.81752229	      4.48961690
      4.49500000	     -3.81889373	     -5.06017234	     -1.05428186	      0.09227977	     -0.01378836	     -0.08778306	      1.51879222	     12.56501844	     14.23538408	    -15.29978503	      4.18790358	     -4.87875264	      6.25231662	     36.86327720	     -5.13150051	     -6.19252728	    -50.26614368	     -1.33736211	      3.06493211	      3.42204764	      4.81672993	      4.74392986	      4.73924751
